Coordinates
version=1
nRows=13
nColumns=34
inDegrees=yes

Units are S.I. units (second, meters, Newtons, ...)
Angles are in degrees.

endheader
time	pelvis_tilt	pelvis_list	pelvis_rotation	pelvis_tx	pelvis_ty	pelvis_tz	hip_flexion_r	hip_adduction_r	hip_rotation_r	knee_angle_r	ankle_angle_r	subtalar_angle_r	mtp_angle_r	hip_flexion_l	hip_adduction_l	hip_rotation_l	knee_angle_l	socket_flexion	socket_adduction	socket_rotation	socket_tx	socket_ty	socket_tz	pros_ankle_rx	pros_ankle_ry	pros_ankle_rz	pros_ankle_tx	pros_ankle_ty	pros_ankle_tz	foot_flex	lumbar_extension	lumbar_bending	lumbar_rotation
      0.30000000	      1.51838010	     -5.25049844	     -3.13043251	     -0.37935932	      1.04765546	      0.35607925	      9.50347397	      1.76096275	     -6.33397471	    -63.87815883	     -2.16763180	      9.33169266	     16.86552137	      6.46817257	     -5.41176054	    -10.47139760	    -18.98072475	      0.07292773	     -0.75848305	      9.66045074	      0.00000000	     -0.02048015	      0.00000000	      0.00000000	      0.00000000	      0.00000000	      0.00000000	      0.00000000	      0.00000000	      5.75556574	     -9.25723154	     -4.18157755	    -18.36111267
      0.30416667	      1.61093908	     -5.36353863	     -3.04807308	     -0.37401335	      1.04849241	      0.35581537	      9.97250400	      1.90782719	     -6.42818824	    -63.82632917	     -1.12849844	      9.32860389	     16.92088945	      5.95520970	     -5.50085186	    -10.54350532	    -18.82432812	      0.05081050	     -0.76364749	      9.78226548	      0.00000000	     -0.02029752	      0.00000000	      0.00000000	      0.00000000	      0.00000000	      0.00000000	      0.00000000	      0.00000000	      5.89771442	     -9.30644143	     -4.02120908	    -18.54723955
      0.30833333	      1.69351586	     -5.46204761	     -2.97451615	     -0.36863383	      1.04927714	      0.35556344	     10.44364725	      2.01617375	     -6.55782529	    -63.71694355	     -0.31315626	      9.35050145	     16.95999248	      5.45091804	     -5.57387498	    -10.62498651	    -18.69226193	      0.00610300	     -0.76619399	      9.86936135	      0.00000000	     -0.02011264	      0.00000000	      0.00000000	      0.00000000	      0.00000000	      0.00000000	      0.00000000	      0.00000000	      6.03324522	     -9.35326247	     -3.90170194	    -18.69617095
      0.31250000	      1.78241199	     -5.56339631	     -2.88706517	     -0.36334869	      1.05006413	      0.35532337	     10.89432722	      2.14725835	     -6.66793649	    -63.55354684	      0.65561827	      9.40081054	     17.00502557	      4.94841677	     -5.65432210	    -10.69946830	    -18.52357209	      0.01236981	     -0.77425600	     10.00131212	      0.00000000	     -0.01992174	      0.00000000	      0.00000000	      0.00000000	      0.00000000	      0.00000000	      0.00000000	      0.00000000	      6.16471886	     -9.40058654	     -3.74039443	    -18.87575786
      0.31666667	      1.86851906	     -5.66744623	     -2.81679512	     -0.35805528	      1.05084264	      0.35507293	     11.34651434	      2.25954304	     -6.80265373	    -63.33748084	      1.47650633	      9.47018815	     17.03483494	      4.44534397	     -5.73738215	    -10.78201419	    -18.37014128	      0.01180267	     -0.78106222	     10.08920544	      0.00000000	     -0.01973076	      0.00000000	      0.00000000	      0.00000000	      0.00000000	      0.00000000	      0.00000000	      0.00000000	      6.29310941	     -9.45639120	     -3.60130245	    -19.03509639
      0.32083333	      1.96303815	     -5.78688342	     -2.73747375	     -0.35284447	      1.05161863	      0.35481657	     11.77816612	      2.40331285	     -6.92690336	    -63.07171749	      2.37119778	      9.57789949	     17.05567468	      3.92177464	     -5.83375674	    -10.84223799	    -18.15926266	      0.02742541	     -0.78154398	     10.22208008	      0.00000000	     -0.01955145	      0.00000000	      0.00000000	      0.00000000	      0.00000000	      0.00000000	      0.00000000	      0.00000000	      6.41476174	     -9.50882057	     -3.41935246	    -19.21872045
      0.32500000	      2.28371515	     -5.79072747	     -2.69838265	     -0.34740669	      1.05278627	      0.35449290	     11.92490343	      2.32019334	     -7.09765293	    -62.73114534	      3.21234891	     10.22007132	     16.68090043	      2.92846591	     -5.73597901	    -10.96848216	    -17.35179877	      0.40113292	     -0.72541894	     10.27160291	      0.00000000	     -0.01947010	      0.00000000	      0.00000000	      0.00000000	      0.00000000	      0.00000000	      0.00000000	      0.00000000	      6.51518319	     -9.84880896	     -3.39219630	    -19.45513450
      0.32916667	      2.32378536	     -5.91026631	     -2.61883973	     -0.34235587	      1.05345288	      0.35425874	     12.40878929	      2.47587501	     -7.23159301	    -62.36605684	      3.91947231	     10.10826693	     16.69435613	      2.51937303	     -5.83543055	    -10.95058077	    -17.23591517	      0.39852243	     -0.71667853	     10.28594085	      0.00000000	     -0.01922342	      0.00000000	      0.00000000	      0.00000000	      0.00000000	      0.00000000	      0.00000000	      0.00000000	      6.65463592	     -9.86693427	     -3.23258237	    -19.53580850
      0.33333333	      2.34896873	     -6.00808259	     -2.54770694	     -0.33725627	      1.05411443	      0.35403600	     12.88528286	      2.59992424	     -7.36965637	    -61.92367351	      4.44197088	     10.08865229	     16.70166041	      2.13193799	     -5.91342918	    -10.97594401	    -17.14386499	      0.36416075	     -0.72616028	     10.30500067	      0.00000000	     -0.01888742	      0.00000000	      0.00000000	      0.00000000	      0.00000000	      0.00000000	      0.00000000	      0.00000000	      6.78124939	     -9.90334530	     -3.10476975	    -19.62594685
      0.33750000	      2.39667828	     -6.17643312	     -2.47729827	     -0.33214444	      1.05471822	      0.35377345	     13.31234563	      2.79223199	     -7.52776871	    -61.44150861	      5.20082146	     10.14052078	     16.68786154	      1.67949691	     -6.06783775	    -11.01466003	    -16.95674547	      0.40750755	     -0.70893448	     10.37922531	      0.00000000	     -0.01883042	      0.00000000	      0.00000000	      0.00000000	      0.00000000	      0.00000000	      0.00000000	      0.00000000	      6.88302446	     -9.91411654	     -2.83861756	    -19.81650556
      0.34166667	      2.44962005	     -6.31056868	     -2.40877929	     -0.32707186	      1.05536054	      0.35353519	     13.72284970	      2.94658887	     -7.69075687	    -60.89702214	      5.78232590	     10.22048444	     16.63480674	      1.23568693	     -6.18252784	    -11.05756873	    -16.78339538	      0.43767738	     -0.70563967	     10.43618714	      0.00000000	     -0.01861970	      0.00000000	      0.00000000	      0.00000000	      0.00000000	      0.00000000	      0.00000000	      0.00000000	      6.99980207	     -9.96093825	     -2.64773316	    -19.97606443
      0.34583333	      2.46557508	     -6.34045753	     -2.36516379	     -0.32212059	      1.05596672	      0.35331108	     14.17943037	      2.98487068	     -7.80714561	    -60.31138453	      6.06007840	     10.22457959	     16.62008004	      0.89964784	     -6.18385343	    -11.10087430	    -16.76755112	      0.38758470	     -0.72972054	     10.41514362	      0.00000000	     -0.01813668	      0.00000000	      0.00000000	      0.00000000	      0.00000000	      0.00000000	      0.00000000	      0.00000000	      7.10888460	    -10.03337766	     -2.61090499	    -20.01755530
      0.35000000	      2.54250740	     -6.56899890	     -2.26671911	     -0.31696738	      1.05657053	      0.35306284	     14.50519803	      3.25527125	     -8.00313317	    -59.65473663	      6.82067748	     10.34160086	     16.51610552	      0.38355227	     -6.40923244	    -11.14051326	    -16.48819678	      0.46991449	     -0.70322351	     10.54782577	      0.00000000	     -0.01817008	      0.00000000	      0.00000000	      0.00000000	      0.00000000	      0.00000000	      0.00000000	      0.00000000	      7.23384581	    -10.07068190	     -2.25811385	    -20.25441516
